<?xml version="1.0" encoding="UTF-8"?>
<svg version="1.1" xmlns="http://www.w3.org/2000/svg" width="118" height="118">
<path d="M0 0 C3.07695212 1.39502065 5.0094287 3.91812829 7.16918945 6.43261719 C7.85754883 7.21282227 7.85754883 7.21282227 8.55981445 8.00878906 C9.68740375 9.28907274 10.8043626 10.57870517 11.91918945 11.87011719 C10.26657695 16.12199684 7.09526901 18.98215932 3.9230957 22.13183594 C3.33374741 22.72309769 2.74439911 23.31435944 2.13719177 23.92353821 C0.89307304 25.16901516 -0.3535639 26.41198107 -1.60253906 27.65258789 C-3.51496376 29.55428917 -5.41647169 31.46643824 -7.31713867 33.37988281 C-8.52808629 34.58950915 -9.739654 35.79851511 -10.9519043 37.00683594 C-11.52073837 37.57971848 -12.08957245 38.15260101 -12.67564392 38.74284363 C-16.49245082 42.51457963 -18.54561743 43.74631129 -23.95581055 44.18261719 C-26.92452144 44.11141194 -28.28863193 43.77486572 -31.08081055 42.49511719 C-33.65896782 39.11128576 -34.29608507 36.92283906 -34.04956055 32.68261719 C-32.30621703 27.62129729 -28.14357039 24.7218272 -24.1550293 21.38964844 C-18.40206744 16.56666052 -13.32038131 11.02843112 -8.17504883 5.57324219 C-7.44141113 4.81914062 -6.70777344 4.06503906 -5.9519043 3.28808594 C-5.3014917 2.60512451 -4.6510791 1.92216309 -3.98095703 1.21850586 C-2.08081055 -0.12988281 -2.08081055 -0.12988281 0 0 Z " fill="#00ADEF" transform="translate(91.080810546875,12.1298828125)"/>
<path d="M0 0 C2.49552878 1.00009626 3.82855397 2.2315581 5.71337891 4.14550781 C6.72948242 5.1693457 6.72948242 5.1693457 7.76611328 6.21386719 C8.46414062 6.93251953 9.16216797 7.65117187 9.88134766 8.39160156 C10.56777344 9.08318359 11.25419922 9.77476563 11.96142578 10.48730469 C15.98081489 14.56753602 19.80843352 18.75577607 23.48974609 23.14379883 C25.0526217 24.81178434 26.61552892 25.93668103 28.50634766 27.20410156 C31.38288584 30.15079921 31.54838333 30.93450256 31.75634766 34.89160156 C31.51993453 38.41678402 31.26094697 39.57697121 29.06884766 42.45410156 C25.30774776 44.17793901 22.13917603 44.68479559 18.06884766 43.82910156 C13.26949066 41.53445949 9.86630718 37.89321958 6.19384766 34.14160156 C5.57324463 33.51455322 4.9526416 32.88750488 4.31323242 32.24145508 C0.55759279 28.42263738 -3.08730406 24.54160753 -6.52880859 20.43457031 C-7.90882639 18.85466136 -9.37533564 17.48313127 -10.93115234 16.07910156 C-12.93115234 13.82910156 -12.93115234 13.82910156 -12.85693359 12.02050781 C-11.53075019 8.88131419 -9.50624271 6.93215785 -7.11865234 4.51660156 C-6.24595703 3.61296875 -5.37326172 2.70933594 -4.47412109 1.77832031 C-1.93115234 -0.17089844 -1.93115234 -0.17089844 0 0 Z " fill="#ED1C24" transform="translate(22.93115234375,12.1708984375)"/>
<path d="M0 0 C4.5804624 2.34164916 7.83342165 5.57302285 11.39453125 9.19921875 C11.98674973 9.79426712 12.5789682 10.38931549 13.18913269 11.00239563 C15.06835999 12.89276401 16.94048955 14.78998729 18.8125 16.6875 C20.09003154 17.97506918 21.36802154 19.26218365 22.64648438 20.54882812 C25.76965543 23.69397895 28.88648219 26.8452939 32 30 C30.21799313 33.85027991 27.92324595 36.2799142 24.875 39.25 C23.96492188 40.14203125 23.05484375 41.0340625 22.1171875 41.953125 C21.41851562 42.62859375 20.71984375 43.3040625 20 44 C16.05924327 42.41163081 13.44402624 39.68430748 10.53515625 36.6953125 C10.01996933 36.17492401 9.50478241 35.65453552 8.97398376 35.11837769 C7.33198012 33.45861585 5.69682298 31.79232257 4.0625 30.125 C2.4309201 28.46567624 0.79785945 26.80788194 -0.83827209 25.15304565 C-1.8540075 24.12519114 -2.86705982 23.09467568 -3.87693787 22.06106567 C-6.09666983 19.81030507 -8.31540628 17.7533892 -10.80834961 15.80419922 C-13 14 -13 14 -13.6640625 11.5625 C-13.55998444 4.73497958 -13.55998444 4.73497958 -11 1.375 C-7.23890011 -0.34883745 -4.07032837 -0.85569403 0 0 Z " fill="#00ADEF" transform="translate(71,61)"/>
<path d="M0 0 C3 1.375 3 1.375 5 4 C5.81803208 8.18362467 5.9861855 12.2771019 3.82763672 16.04815674 C2.13331396 18.02044207 0.34967644 19.77728361 -1.5625 21.5390625 C-2.22838135 22.19079437 -2.8942627 22.84252625 -3.58032227 23.51400757 C-5.69779055 25.57581013 -7.84737658 27.59999295 -10 29.625 C-11.44758509 31.02238919 -12.89292511 32.42210807 -14.3359375 33.82421875 C-17.86521209 37.24365578 -21.42371155 40.629792 -25 44 C-28.66458551 42.2766912 -31.2627463 40.12641789 -34.25 37.375 C-35.14203125 36.55773437 -36.0340625 35.74046875 -36.953125 34.8984375 C-37.62859375 34.27195313 -38.3040625 33.64546875 -39 33 C-38.42191208 29.86613275 -37.60287827 28.22962711 -35.34790039 25.99145508 C-34.79385025 25.43440384 -34.23980011 24.8773526 -33.66896057 24.30342102 C-32.76741493 23.42039558 -32.76741493 23.42039558 -31.84765625 22.51953125 C-31.23232529 21.90607346 -30.61699432 21.29261566 -29.98301697 20.66056824 C-28.6826839 19.36695071 -27.37876137 18.07693269 -26.0715332 16.7902832 C-24.06655287 14.81648983 -22.07246994 12.8321952 -20.08007812 10.84570312 C-18.81572564 9.59051951 -17.55077191 8.33594118 -16.28515625 7.08203125 C-15.68615005 6.48727493 -15.08714386 5.89251862 -14.46998596 5.27973938 C-9.6961246 0.58819118 -6.76426299 -0.86654994 0 0 Z " fill="#00ADEF" transform="translate(49,61)"/>
</svg>
